<?xml version="1.0" encoding="UTF-8"?>
<svg xmlns="http://www.w3.org/2000/svg" version="1.1" viewBox="0 0 428 123.3">
  <defs>
    <style>
      .cls-1 {
        fill-rule: evenodd;
      }

      .cls-1, .cls-2 {
        fill: #182944;
      }

      .cls-3 {
        fill: #e50047;
      }
    </style>
  </defs>
  <!-- Generator: Adobe Illustrator 28.6.0, SVG Export Plug-In . SVG Version: 1.2.0 Build 709)  -->
  <g>
    <g id="Capa_1">
      <path class="cls-3" d="M.2,67.6h16l9.5,31.6,10.5-31.7h13l10.5,31.7,9.5-31.6h15.7l-18.3,55h-13.2l-11-31.4-10.9,31.4h-13.2L0,67.6h.2Z"/>
      <path class="cls-3" d="M102.8,67.3h14.6l23.2,55h-16.2l-4-9.7h-21.1l-3.9,9.7h-15.9l23.2-55h0ZM116.1,100.7l-6.1-15.5-6.2,15.5h12.3Z"/>
      <path class="cls-3" d="M152.3,80.9h-16.4v-13.3h47.9v13.3h-16.4v41.3h-15.1v-41.3Z"/>
      <path class="cls-3" d="M186.2,95.1v-.2c0-15.9,12.2-28.4,28.8-28.4s18.3,4.7,23.2,11.4l-11.4,8.8c-3.1-3.9-6.7-6.4-11.9-6.4-7.6,0-13,6.5-13,14.4v.2c0,8.2,5.4,14.6,13,14.6s9-2.7,12.3-6.6l11.4,8.1c-5.1,7.1-12.1,12.3-24.2,12.3s-28.2-11.9-28.2-28.2h0Z"/>
      <path class="cls-3" d="M245,67.6h15.1v20.4h19.4v-20.4h15.1v54.6h-15.1v-20.7h-19.4v20.7h-15.1v-54.6Z"/>
      <path class="cls-2" d="M.2,1h23.4c13.8,0,22.7,7.1,22.7,19.2v.2c0,12.9-9.9,19.7-23.5,19.7h-7.5v15.6H.2V1.1h0ZM22.5,28.1c5.4,0,8.7-2.8,8.7-7.1v-.2c0-4.7-3.3-7.2-8.7-7.2h-7.1v14.4h7.2,0Z"/>
      <path class="cls-2" d="M115.5,1.9h15.1v41.3h26.4v13.3h-41.6V1.9h.1Z"/>
      <path class="cls-2" d="M163.9,1.9h15.2v54.6h-15.2V1.9Z"/>
      <path class="cls-2" d="M203.4,15.2h-16.4V1.9h47.9v13.3h-16.4v41.3h-15.1V15.2Z"/>
      <path class="cls-2" d="M242.8,1.9h15.2v54.6h-15.2V1.9Z"/>
      <path class="cls-2" d="M266.2,29.4v-.2c0-15.9,12.2-28.4,28.8-28.4s18.3,4.7,23.2,11.4l-11.4,8.8c-3.1-3.9-6.7-6.4-11.9-6.4-7.6,0-13,6.5-13,14.4v.2c0,8.2,5.4,14.6,13,14.6s9-2.7,12.3-6.6l11.4,8.1c-5.1,7.1-12.1,12.3-24.2,12.3s-28.2-11.9-28.2-28.2h0Z"/>
      <path class="cls-2" d="M343.4,1.5h14.6l23.2,55h-16.2l-4-9.7h-21.1l-3.9,9.7h-15.9L343.3,1.5h.1ZM356.6,35l-6.1-15.5-6.2,15.5h12.3Z"/>
      <path class="cls-2" d="M386.5,1.9h15.1v41.3h26.4v13.3h-41.6V1.9h0Z"/>
      <g>
        <path class="cls-2" d="M60.4,48.3c-5.4-5.4-8.3-12.5-8.3-20s2.9-14.7,8.3-20c5.4-5.4,12.5-8.3,20-8.3s14.7,2.9,20,8.3c5.4,5.4,8.3,12.5,8.3,20s-2.9,14.7-8.3,20c-5.4,5.4-12.5,8.3-20,8.3s-14.7-2.9-20-8.3ZM62.9,28.3c0,9.7,7.9,17.5,17.5,17.5s17.5-7.9,17.5-17.5-7.9-17.5-17.5-17.5-17.5,7.9-17.5,17.5Z"/>
        <path class="cls-1" d="M77.7,19.3c.8.2,1.4.6,2,1.1,1.3,1.2,1.7,3.2,1,4.8-.8,1.7-2.7,2.8-4.5,2.6-1.9-.2-3.7-2-3.7-4s0-.3-.1-.3-.2.1-.2.2c-.9,1.5-1.2,3.1-1.2,4.8s.9,4.4,2.5,6.2c1.6,1.7,3.5,2.7,5.8,3,3.5.4,6.4-.8,8.6-3.4,1.6-2,2.3-4.3,2.1-6.9-.2-2.1-1-4-2.4-5.6-1.4-1.5-3.2-2.5-5.3-2.9-1.3-.2-2.6-.3-3.9,0-.2,0-.4,0-.6.3h0Z"/>
      </g>
    </g>
  </g>
</svg>