<?xml version="1.0" encoding="UTF-8"?>
<svg id="Capa_2" xmlns="http://www.w3.org/2000/svg" viewBox="0 0 694.75 694.82">
  <defs>
    <style>
      .cls-1 {
        fill: #d37a6a;
      }
    </style>
  </defs>
  <g id="Capa_1-2" data-name="Capa_1">
    <g>
      <polygon class="cls-1" points="437.15 642.66 442.01 642.66 439.58 626.39 437.15 642.66"/>
      <path class="cls-1" d="M418.11,625.29h-2.84v22.98h2.84c1.61,0,2.57-.83,2.57-3.12v-16.73c0-2.3-.96-3.13-2.57-3.13Z"/>
      <path class="cls-1" d="M91.79,428.72c0-10.84-6.67-26.41-26.21-26.41h-12.67v52.42h12.48c12.57,0,26.4-6.29,26.4-26.01Z"/>
      <path class="cls-1" d="M294.63,591.35h-11.02v27.37h7.16c4.26,0,19.72-.2,19.72-14.03,0-5.99-4.05-13.35-15.86-13.35Z"/>
      <path class="cls-1" d="M362.27,510.18c0-6-4.07-13.35-15.87-13.35h-11.03v27.37h7.16c4.26,0,19.73-.19,19.73-14.02Z"/>
      <path class="cls-1" d="M127.19,589.99c-18.46,0-26.77,16.15-26.77,27.57s8.41,27.56,26.77,27.56,26.8-16.05,26.8-27.28c0-12.66-9-27.85-26.8-27.85Z"/>
      <path class="cls-1" d="M275.89,495.48c-18.48,0-26.8,16.15-26.8,27.57s8.42,27.56,26.8,27.56,26.78-16.05,26.78-27.28c0-12.67-8.99-27.85-26.78-27.85Z"/>
      <polygon class="cls-1" points="127.41 500.79 118.22 528.17 136.7 528.17 127.6 500.79 127.41 500.79"/>
      <polygon class="cls-1" points="275.87 406.28 275.68 406.28 266.49 433.66 284.97 433.66 275.87 406.28"/>
      <path class="cls-1" d="M347.38,347.41L.07,0l-.07,694.75,694.75.07-347.38-347.41ZM495.81,613.75h5.23l-4.95,5.38h-3.58l3.3-5.38ZM318.23,392.74h10.45v61.99h24.85v9.57h-35.3v-71.57ZM280.41,392.74l27.19,71.57h-11.12l-7.93-21.08h-25.74l-7.92,21.08h-11.03l27.18-71.57h9.37ZM313.12,523.23c0,19.54-15.96,36.95-37.23,36.95s-37.24-17.51-37.24-37.14,15.37-37.15,37.24-37.15,37.23,16.93,37.23,37.33ZM199.65,298.23h11.41l34.82,54.45h.19v-54.45h10.44v71.57h-10.83l-35.4-55.32h-.19v55.32h-10.44v-71.57ZM216.29,432.29c-9.58-3.67-11.9-4.83-15.19-8.02-3.29-3.19-4.84-8.42-4.84-13.44,0-8.32,6.48-19.44,20.02-19.44,11.89,0,20.5,7.83,20.5,19.92h-10.45c0-7.93-5.8-10.35-10.06-10.35-6.19,0-9.58,5.61-9.58,9.77,0,6.87,6.48,8.71,9.58,9.87,8.99,3.38,21.94,6.19,21.94,23.4,0,12.48-8.79,21.67-21.94,21.67-9.87,0-22.05-6.58-22.05-22.53h10.44c0,2.42,1.07,12.96,11.61,12.96,6.58,0,11.5-4.55,11.5-12.09,0-8.03-6.58-9.76-11.5-11.7ZM149.74,465.67c-21.38,0-37.24-17.5-37.24-37.14s15.38-37.13,37.24-37.13,37.23,16.92,37.23,37.33-15.96,36.94-37.23,36.94ZM159.33,558.82h-11.12l-7.93-21.09h-25.72l-7.93,21.09h-11.02l27.18-71.57h9.38l27.18,71.57ZM172.95,346.39v-48.16h10.44v48.45c0,8.13-2.71,14.03-7.26,18.38-4.45,3.68-10.15,6.09-16.73,6.09s-12.29-2.42-16.73-6.09c-4.55-4.35-7.26-10.25-7.26-18.38v-48.45h10.44v48.16c0,13.25,9.67,15.19,13.55,15.19s13.54-1.94,13.54-15.19ZM107.47,203.71h11.42l34.81,54.45h.19v-54.45h10.45v71.57h-10.83l-35.4-55.32h-.19v55.32h-10.45v-71.57ZM119.35,298.23v71.57h-10.45v-60.45h-.29l-24.08,60.45h-6.28l-24.18-60.45h-.2v60.45h-10.45v-71.57h16.44l21.48,54.84,21.55-54.84h16.45ZM43.24,203.71h10.44v48.16c0,13.25,9.68,15.19,13.55,15.19s13.54-1.93,13.54-15.19v-48.16h10.45v48.45c0,8.13-2.71,14.03-7.26,18.38-4.45,3.67-10.16,6.09-16.73,6.09s-12.28-2.42-16.74-6.09c-4.55-4.35-7.25-10.25-7.25-18.38v-48.45ZM42.47,392.74h23.21c14.89,0,23.79,5.7,29.21,13.16,5.13,7.15,7.36,15.86,7.36,22.82,0,9.67-3.68,20.02-8.99,25.24-8.22,8.12-17.89,10.34-27.96,10.34h-22.82v-71.57ZM48.57,487.26l20.79,53.67,20.8-53.67h11.02l-28.72,71.57h-6.29l-28.82-71.57h11.22ZM59.97,654.7c-9.86,0-22.05-6.58-22.05-22.54h10.45c0,2.42,1.06,12.96,11.6,12.96,6.58,0,11.51-4.54,11.51-12.08,0-8.03-6.58-9.77-11.51-11.71-9.57-3.68-11.89-4.83-15.18-8.03-3.29-3.19-4.84-8.41-4.84-13.44,0-8.31,6.48-19.44,20.02-19.44,11.9,0,20.51,7.84,20.51,19.92h-10.45c0-7.94-5.8-10.35-10.06-10.35-6.19,0-9.57,5.61-9.57,9.77,0,6.87,6.48,8.7,9.57,9.87,9,3.38,21.95,6.19,21.95,23.41,0,12.47-8.8,21.66-21.95,21.66ZM127.19,654.7c-21.37,0-37.23-17.51-37.23-37.14s15.37-37.14,37.23-37.14,37.24,16.92,37.24,37.33-15.95,36.95-37.24,36.95ZM212.9,653.34h-35.31v-71.57h10.45v61.99h24.86v9.57ZM191.44,558.82h-22.82v-71.57h23.22c14.89,0,23.79,5.71,29.21,13.16,5.12,7.15,7.34,15.86,7.34,22.82,0,9.68-3.67,20.02-8.99,25.24-8.22,8.13-17.89,10.35-27.96,10.35ZM259.61,591.35h-28.14v21.09h28.14v9.57h-28.14v21.76h28.14v9.57h-38.59v-71.57h38.59v9.57ZM320.46,653.34h-13.06l-23.6-33.17h-.19v33.17h-10.45v-71.57h22.16c10.06,0,15.27,2.41,19.05,6,4.54,4.35,6.58,10.93,6.58,16.92,0,18.95-15.87,21.95-20.51,21.95l20.02,26.69ZM335.38,525.65v33.17h-10.45v-71.57h22.16c10.05,0,15.27,2.42,19.04,6,4.55,4.35,6.58,10.92,6.58,16.92,0,18.95-15.86,21.95-20.5,21.95l49.6,69.67h-13.05l-53.18-76.15h-.2ZM359.63,625.29h-8.3v9.7h6.51v4.6h-6.51v13.28h-5.04v-32.17h13.35v4.6ZM380.32,645.19c0,5.15-2.57,8.09-7.52,8.09s-7.52-2.94-7.52-8.09v-24.5h5.04v24.82c0,2.3,1.01,3.12,2.62,3.12s2.61-.83,2.61-3.12v-24.82h4.77v24.5ZM403.16,652.86h-5.18l-6.28-23.3v23.3h-4.54v-32.17h6.33l5.18,19.26v-19.26h4.5v32.17ZM425.73,644.91c0,5.15-2.48,7.95-7.52,7.95h-7.98v-32.17h7.98c5.05,0,7.52,2.8,7.52,7.95v16.27ZM443.57,652.86l-.87-5.84h-6.19l-.87,5.84h-4.63l5.14-32.17h7.38l5.14,32.17h-5.09ZM469.03,631.54h-4.77v-3.45c0-2.3-1.01-3.17-2.61-3.17s-2.61.87-2.61,3.17v17.37c0,2.3,1.01,3.12,2.61,3.12s2.61-.83,2.61-3.12v-4.6h4.77v4.27c0,5.15-2.57,8.09-7.52,8.09s-7.52-2.94-7.52-8.09v-16.73c0-5.15,2.57-8.09,7.52-8.09s7.52,2.94,7.52,8.09v3.12ZM480.58,652.86h-5.04v-32.17h5.04v32.17ZM502.6,645.14c0,5.15-2.71,8.09-7.66,8.09s-7.66-2.94-7.66-8.09v-16.73c0-5.15,2.71-8.09,7.66-8.09s7.66,2.94,7.66,8.09v16.73ZM520.08,652.86l-6.28-23.3v23.3h-4.54v-32.17h6.33l5.18,19.26v-19.26h4.5v32.17h-5.18Z"/>
      <path class="cls-1" d="M494.94,624.92c-1.61,0-2.61.87-2.61,3.17v17.37c0,2.3,1.01,3.17,2.61,3.17s2.61-.87,2.61-3.17v-17.37c0-2.3-1.01-3.17-2.61-3.17Z"/>
      <path class="cls-1" d="M191.74,496.83h-12.68v52.42h12.48c12.57,0,26.4-6.29,26.4-26.02,0-10.83-6.68-26.4-26.21-26.4Z"/>
      <path class="cls-1" d="M149.74,400.96c-18.48,0-26.8,16.15-26.8,27.56s8.41,27.57,26.8,27.57,26.78-16.06,26.78-27.27c0-12.68-8.99-27.86-26.78-27.86Z"/>
    </g>
  </g>
</svg>