<?xml version="1.0" encoding="UTF-8"?>
<svg xmlns="http://www.w3.org/2000/svg" version="1.1" viewBox="0 0 428 123.3">
  <defs>
    <style>
      .cls-1 {
        fill: #088134;
      }
    </style>
  </defs>
  <!-- Generator: Adobe Illustrator 28.6.0, SVG Export Plug-In . SVG Version: 1.2.0 Build 709)  -->
  <g>
    <g id="Capa_1">
      <g>
        <rect class="cls-1" x="88.7" y="88.4" width="27.8" height="27.8"/>
        <path class="cls-1" d="M88.7,7.8h-35.8C23.6,8.6,0,32.6,0,62s23.6,53.4,52.8,54.1h0s18,0,18,0v-27.8h-16.6c-14.5,0-26.4-11.8-26.4-26.4s11.8-26.4,26.4-26.4h0s34.5,0,34.5,0v35.8h27.8V7.8h-27.8Z"/>
        <g>
          <path class="cls-1" d="M165,8.9c2.1,2,3.3,4.3,3.5,6.9h-4c-.4-2-1.3-3.5-2.7-4.6s-3.2-1.7-5.6-1.7-5.3,1.1-7.1,3.2c-1.8,2.1-2.7,5.3-2.7,9.7s.8,6.4,2.4,8.7c1.6,2.2,4.1,3.3,7.3,3.3s5.2-1.2,6.8-3.5c.8-1.2,1.4-2.8,1.8-4.8h4c-.4,3.2-1.5,5.9-3.5,8-2.4,2.6-5.6,3.9-9.6,3.9s-6.4-1.1-8.8-3.2c-3.1-2.8-4.7-7.2-4.7-13.1s1.2-8.2,3.5-11c2.5-3.1,6-4.7,10.5-4.7s6.7,1,8.8,3Z"/>
          <path class="cls-1" d="M181.1,6.7h4.6l11,30.3h-4.5l-3.1-9.1h-12l-3.3,9.1h-4.2l11.4-30.3ZM187.8,24.6l-4.6-13.4-4.9,13.4h9.5Z"/>
          <path class="cls-1" d="M198.6,6.7h5.9l8.7,25.7,8.7-25.7h5.8v30.3h-3.9v-17.9c0-.6,0-1.6,0-3.1s0-3,0-4.6l-8.7,25.6h-4.1l-8.7-25.6v.9c0,.7,0,1.9,0,3.4,0,1.5,0,2.6,0,3.4v17.9h-3.9V6.7Z"/>
          <path class="cls-1" d="M232.5,6.7h13.6c2.7,0,4.9.8,6.5,2.3,1.7,1.5,2.5,3.7,2.5,6.4s-.7,4.4-2.2,6.2c-1.5,1.8-3.7,2.6-6.8,2.6h-9.5v12.8h-4.1V6.7ZM248.4,10.9c-.9-.4-2.1-.6-3.7-.6h-8.1v10.5h8.1c1.8,0,3.3-.4,4.5-1.2s1.7-2.2,1.7-4.2-.8-3.7-2.5-4.5Z"/>
          <path class="cls-1" d="M262.9,6.7v18.8c0,2.2.4,4,1.2,5.5,1.2,2.2,3.3,3.3,6.2,3.3s5.9-1.2,7.2-3.6c.7-1.3,1-3,1-5.2V6.7h4.2v17c0,3.7-.5,6.6-1.5,8.6-1.9,3.7-5.3,5.5-10.5,5.5s-8.6-1.8-10.5-5.5c-1-2-1.5-4.9-1.5-8.6V6.7h4.2Z"/>
          <path class="cls-1" d="M289.9,27.3c0,1.7.5,3.1,1.2,4.2,1.3,2,3.6,3,6.9,3s2.8-.2,4.1-.7c2.4-.9,3.5-2.4,3.5-4.6s-.5-2.8-1.5-3.5c-1-.7-2.6-1.3-4.8-1.8l-4-.9c-2.6-.6-4.4-1.3-5.5-2-1.9-1.3-2.8-3.2-2.8-5.7s.9-5,2.8-6.7c1.8-1.7,4.4-2.6,7.8-2.6s5.7.8,7.9,2.3,3.2,4,3.2,7.4h-3.9c-.2-1.6-.6-2.9-1.3-3.7-1.2-1.6-3.2-2.4-6.1-2.4s-4,.5-5,1.5c-1,1-1.5,2.2-1.5,3.6s.6,2.6,1.8,3.3c.8.4,2.6,1,5.3,1.7l4.1,1c2,.5,3.5,1.1,4.6,1.9,1.9,1.4,2.8,3.5,2.8,6.2s-1.2,5.8-3.6,7.2c-2.4,1.4-5.2,2.2-8.3,2.2s-6.6-1-8.6-2.9c-2.1-1.9-3.1-4.5-3.1-7.8h3.9Z"/>
          <path class="cls-1" d="M165.6,46.5v3.6h-10.2v26.7h-4.2v-26.7h-10.2v-3.6h24.6Z"/>
          <path class="cls-1" d="M167.4,46.5h22v3.7h-18v9.2h16.6v3.5h-16.6v10.3h18.3v3.6h-22.3v-30.3Z"/>
          <path class="cls-1" d="M214.4,48.7c2.1,2,3.3,4.3,3.5,6.9h-4c-.4-2-1.3-3.5-2.7-4.6s-3.2-1.7-5.6-1.7-5.3,1.1-7.1,3.2c-1.8,2.1-2.7,5.3-2.7,9.7s.8,6.4,2.4,8.7c1.6,2.2,4.1,3.3,7.3,3.3s5.2-1.2,6.8-3.5c.8-1.2,1.4-2.8,1.8-4.8h4c-.4,3.2-1.5,5.9-3.5,8-2.4,2.6-5.6,3.9-9.6,3.9s-6.4-1.1-8.8-3.2c-3.1-2.8-4.7-7.2-4.7-13.1s1.2-8.2,3.5-11c2.5-3.1,6-4.7,10.5-4.7s6.7,1,8.8,3Z"/>
          <path class="cls-1" d="M221.2,46.5h4.8l15.1,24.5v-24.5h3.9v30.3h-4.6l-15.4-24.5v24.5h-3.9v-30.3Z"/>
          <path class="cls-1" d="M274.4,50.8c2,2.7,3,6.1,3,10.3s-1.2,8.3-3.5,11.3c-2.7,3.5-6.5,5.3-11.5,5.3s-8.3-1.5-11-4.6c-2.4-3-3.6-6.7-3.6-11.3s1-7.6,3.1-10.5c2.6-3.7,6.5-5.6,11.6-5.6s9.3,1.7,11.9,5.2ZM270.8,70.2c1.6-2.6,2.4-5.6,2.4-9s-.9-6.4-2.8-8.6c-1.9-2.2-4.4-3.3-7.7-3.3s-5.7,1.1-7.7,3.2c-2,2.2-3,5.3-3,9.5s.8,6.2,2.6,8.5c1.7,2.3,4.5,3.5,8.3,3.5s6.2-1.3,7.9-3.9Z"/>
          <path class="cls-1" d="M280,46.5h4.1v26.7h15.2v3.6h-19.3v-30.3Z"/>
          <path class="cls-1" d="M326.2,50.8c2,2.7,3,6.1,3,10.3s-1.2,8.3-3.5,11.3c-2.7,3.5-6.5,5.3-11.5,5.3s-8.3-1.5-11-4.6c-2.4-3-3.6-6.7-3.6-11.3s1-7.6,3.1-10.5c2.6-3.7,6.5-5.6,11.6-5.6s9.3,1.7,11.9,5.2ZM322.5,70.2c1.6-2.6,2.4-5.6,2.4-9s-.9-6.4-2.8-8.6c-1.9-2.2-4.4-3.3-7.7-3.3s-5.7,1.1-7.7,3.2c-2,2.2-3,5.3-3,9.5s.8,6.2,2.6,8.5c1.7,2.3,4.5,3.5,8.3,3.5s6.2-1.3,7.9-3.9ZM318.8,37.3l-5.5,6h-2.9l3.8-6h4.6Z"/>
          <path class="cls-1" d="M352,47.4c3,1.6,4.8,4.4,5.5,8.3h-4.1c-.5-2.2-1.5-3.8-3-4.8-1.5-1-3.4-1.5-5.8-1.5s-5.1,1.1-6.9,3.2-2.8,5.2-2.8,9.4.8,6.5,2.3,8.8c1.6,2.3,4.1,3.4,7.6,3.4s4.9-.8,6.7-2.4c1.8-1.6,2.7-4.2,2.7-7.7h-9.5v-3.4h13.3v16.2h-2.6l-1-3.9c-1.4,1.5-2.6,2.6-3.6,3.2-1.8,1-4,1.5-6.8,1.5s-6.6-1.2-9.1-3.5c-2.8-2.9-4.2-6.9-4.2-12s1.4-9.1,4.1-12.1c2.6-2.9,5.9-4.3,10-4.3s5.2.6,7.3,1.7Z"/>
          <path class="cls-1" d="M363.3,46.5h4.2v30.3h-4.2v-30.3Z"/>
          <path class="cls-1" d="M393.2,48.7c2.1,2,3.3,4.3,3.5,6.9h-4c-.4-2-1.3-3.5-2.7-4.6-1.3-1.1-3.2-1.7-5.6-1.7s-5.3,1.1-7.1,3.2-2.7,5.3-2.7,9.7.8,6.4,2.4,8.7c1.6,2.2,4.1,3.3,7.3,3.3s5.2-1.2,6.8-3.5c.8-1.2,1.4-2.8,1.8-4.8h4c-.4,3.2-1.5,5.9-3.5,8-2.4,2.6-5.6,3.9-9.6,3.9s-6.4-1.1-8.8-3.2c-3.1-2.8-4.7-7.2-4.7-13.1s1.2-8.2,3.5-11c2.5-3.1,6-4.7,10.5-4.7s6.7,1,8.8,3Z"/>
          <path class="cls-1" d="M425,50.8c2,2.7,3,6.1,3,10.3s-1.2,8.3-3.5,11.3c-2.7,3.5-6.5,5.3-11.5,5.3s-8.3-1.5-11-4.6c-2.4-3-3.6-6.7-3.6-11.3s1-7.6,3.1-10.5c2.6-3.7,6.5-5.6,11.6-5.6s9.3,1.7,11.9,5.2ZM421.4,70.2c1.6-2.6,2.4-5.6,2.4-9s-.9-6.4-2.8-8.6c-1.9-2.2-4.4-3.3-7.7-3.3s-5.7,1.1-7.7,3.2c-2,2.2-3,5.3-3,9.5s.8,6.2,2.6,8.5c1.7,2.3,4.5,3.5,8.3,3.5s6.2-1.3,7.9-3.9Z"/>
          <path class="cls-1" d="M143.7,86.2h12.1c4.1,0,7.3,1.5,9.6,4.4,2,2.7,3,6.1,3,10.3s-.6,6.1-1.8,8.7c-2.1,4.6-5.7,6.9-10.9,6.9h-12.1v-30.3ZM155,113.1c1.4,0,2.5-.1,3.4-.4,1.6-.5,2.8-1.6,3.8-3.1.8-1.2,1.4-2.8,1.7-4.7.2-1.1.3-2.2.3-3.2,0-3.8-.7-6.7-2.2-8.8-1.5-2.1-3.8-3.1-7.1-3.1h-7.1v23.3h7.2Z"/>
          <path class="cls-1" d="M172.7,86.2h22v3.7h-18v9.2h16.6v3.5h-16.6v10.3h18.3v3.6h-22.3v-30.3Z"/>
          <path class="cls-1" d="M198.7,86.2h4.1v26.7h15.2v3.6h-19.3v-30.3Z"/>
          <path class="cls-1" d="M229.7,86.2h4.2v30.3h-4.2v-30.3Z"/>
          <path class="cls-1" d="M260.2,88.5c2.1,2,3.3,4.3,3.5,6.9h-4c-.4-2-1.3-3.5-2.7-4.6-1.3-1.1-3.2-1.7-5.6-1.7s-5.3,1.1-7.1,3.2-2.7,5.3-2.7,9.7.8,6.4,2.4,8.7c1.6,2.2,4.1,3.3,7.3,3.3s5.2-1.2,6.8-3.5c.8-1.2,1.4-2.8,1.8-4.8h4c-.4,3.2-1.5,5.9-3.5,8-2.4,2.6-5.6,3.9-9.6,3.9s-6.4-1.1-8.8-3.2c-3.1-2.8-4.7-7.2-4.7-13.1s1.2-8.2,3.5-11c2.5-3.1,6-4.7,10.5-4.7s6.7,1,8.8,3Z"/>
          <path class="cls-1" d="M276.3,86.2h4.6l11,30.3h-4.5l-3.1-9.1h-12l-3.3,9.1h-4.2l11.4-30.3ZM283,104.2l-4.6-13.4-4.9,13.4h9.5Z"/>
          <path class="cls-1" d="M294.8,86.2h4.2v30.3h-4.2v-30.3Z"/>
        </g>
      </g>
    </g>
  </g>
</svg>